<?xml version="1.0" encoding="utf-8"?>
<!-- Generator: Adobe Illustrator 16.0.0, SVG Export Plug-In . SVG Version: 6.00 Build 0)  -->
<!DOCTYPE svg PUBLIC "-//W3C//DTD SVG 1.1//EN" "http://www.w3.org/Graphics/SVG/1.1/DTD/svg11.dtd">
<svg version="1.1" id="Layer_1" xmlns="http://www.w3.org/2000/svg" xmlns:xlink="http://www.w3.org/1999/xlink" x="0px" y="0px"
	 width="200px" height="100px" viewBox="-202 283 200 100">
<g>
	<path fill="#666667" d="M-10.987,306.588c-4.01-2.249-5.627-3.063-8-3.063c-2.193,0-3.252,1.124-3.252,2.859
		c0,5.214,12.561,3.783,12.561,15.947c0,6.643-3.662,10.63-9.879,10.63c-3.813,0-5.607-1.637-8.389-3.478v-7.462
		c4.008,3.271,5.627,4.495,8.652,4.495c2.328,0,3.25-1.226,3.25-3.27c0-5.724-12.48-3.576-12.48-16.15
		c0-6.026,2.498-10.017,8.965-10.017c3.107,0,5.051,0.814,8.57,2.76v6.745L-10.987,306.588L-10.987,306.588z"/>
	<path fill="#666667" d="M-107.991,297.393c5.729,0,8.246,4.808,8.246,10.021c0,3.781-1.557,6.645-4.746,8.48
		c-0.893,0.382-1.35,0.494-2.012,0.657l9.619,15.697h-6.771l-9.063-14.208v14.208h-6.115v-34.856H-107.991L-107.991,297.393z
		 M-112.718,311.705h2.846c1.963,0,3.846-1.022,3.846-3.986c0-2.658-1.393-3.981-4.01-3.981h-2.682V311.705z"/>
	<path fill="#666667" d="M-67.729,332.25h-6.609l-2.289-6.95h-10.842l-2.047,6.95h-6.523l10.369-34.855h6.424L-67.729,332.25z
		 M-82.335,305.674l-3.254,13.594h6.916L-82.335,305.674z"/>
	<path fill="#666667" d="M-59.573,332.25h-6.115v-34.855h6.115V332.25z"/>
	<path fill="#666667" d="M-31.178,332.25h-5.053L-49.1,309.866v22.384h-6.115v-34.855h5.545l12.375,21.264v-21.264h6.117V332.25z"/>
	<path fill="#666667" d="M-127.63,313.035c2.373-1.435,3.846-3.988,3.846-6.952c0-1.544-0.303-3.23-1.068-4.704
		c-2.244,1.989-4.723,4.152-5.469,4.804c0.115,0.402,0.176,0.821,0.176,1.229c0,1.839-0.98,3.781-3.52,3.781h-2.004v-1.795v-5.664
		v-0.845l7.303-4.784c-1.051-0.442-2.305-0.711-3.824-0.711h-9.596v34.854h10.229c8.184,0,9.902-6.234,9.902-10.221
		C-121.655,317.939-123.62,314.36-127.63,313.035z M-133.419,325.81h-2.25v-8.177h3.23c2.455,0,4.256,1.328,4.256,3.883
		C-128.182,324.587-129.573,325.81-133.419,325.81z"/>
	<path fill="#F18825" d="M-118.932,293.298c-0.381-0.239-4.857,2.545-7.668,4.504l-1.033,0.716l-7.195,4.831v5.354
		c1.541-1.052,2.785-2.038,3.676-2.931l5.383-4.61c0,0,2.691-2.419,4.105-3.833l0.523-0.49c0.396-0.356,0.664-0.597,0.664-0.929
		c0-0.02-0.002-0.037-0.002-0.057C-120.497,295.667-118.76,293.404-118.932,293.298z"/>
	<path fill="#F18825" d="M-147.153,316.05l4.379-2.975v-5.36l-3.926,2.563c0,0-3.5,2.271-4.723,3.063
		c0.092-0.688,0.186-1.418,0.186-1.418c0.617-4.558,1.184-9.104,1.184-12.133c0-1.465-0.133-2.574-0.459-3.152
		c-0.23-0.41-0.582-0.674-1.014-0.762c-0.574-0.118-1.242,0.083-1.883,0.568c-2.008,1.396-3.004,5.482-3.004,12.426
		c0,2.245,0.107,4.798,0.316,7.643c-0.232,0.21-1.389,1.251-1.389,1.251c0.018-0.015-1.984,1.747-1.984,1.747
		c-0.002,0.002-0.053,0.069-0.088,0.111c-1.854,1.639-3.021,2.558-3.467,2.729c-0.555,0.223-1.041,0.271-1.479,0.229
		c2.52-1.858,4.574-5.836,4.574-8.202c0-0.271-0.025-0.521-0.084-0.745c-0.412-1.618-1.227-2.794-2.361-3.399
		c-1.113-0.597-2.459-0.617-4.002-0.068l-0.602,0.244c-2.779,1.258-11.227,6.006-13.85,7.483c0.311-3.705,1.832-20.603,2.258-29.517
		c0.277-5.758,0-2.188,0-3.305c0-4.188-5.26,0.002-8.172,2.913c-1.223,1.223-5.041,4.711-3.658,7.365
		c1.488,2.856,3.057,1.899,3.879,6.817c1.445,8.646,0.342,17.512,0.344,18.082c-0.475,0.224-4.098,1.929-4.098,1.929
		c-6.242,2.892-10.986,5.082-10.986,8.688c0,0.563,0.115,1.156,0.357,1.795c5.18,13.545,12.24,20.835,15.023,20.098
		c4.035-1.074,4.199-6.379,4.447-14.4c0.123-4.001,0.27-8.533,0.885-13.636c0.324-0.204,7.109-5.253,8.371-6.061
		c-0.605,1.229-0.6,2.419-0.6,3.06c0,1.599,0.229,2.91,0.553,3.588c0.547,1.145,1.029,1.992,2.275,2.559
		c1.582,0.755,2.957,0.965,5.656-0.096c1.211-0.479,3.287-1.916,5.598-3.854c0.459,0.788,2.459,4.23,2.459,4.23l1.832,3.123
		c0.828,1.473,2.141,1.888,3.604,1.141c1.111-0.557,1.846-1.044,2.063-1.76c0.045-0.15,0.064-0.297,0.064-0.443
		c0-0.479-0.213-0.938-0.42-1.304c-2.104-3.746-2.244-7.011-2.244-9.493c0-0.16,0-0.316,0-0.472
		C-150.975,318.693-147.153,316.05-147.153,316.05z M-188.368,341.706c-1.658-1.342-2.443-2.476-3.654-5.409
		c-2.051-4.958,0.789-6.492,5.936-9.412C-186.7,332.168-187.128,342.95-188.368,341.706z M-167.87,320.512
		c-0.072-1.854-0.459-4.253,1.934-5.521c0.934-0.513,1.479-0.188,1.793,0.13C-163.512,315.752-164.925,318.677-167.87,320.512z"/>
</g>
</svg>
