<svg xmlns="http://www.w3.org/2000/svg" viewBox="0 0 1585.2133 1002.6453" height="1002.645" width="1585.213"><defs><clipPath id="a"><path d="M0 751.984h1188.908V0H0v751.984z"/></clipPath></defs><g><g><g clip-path="url(#a)" transform="matrix(1.333 0 0 -1.333 0 1002.645)"><g><path d="M677.765 160.532h-106.6c-7.632 0-14.212 1.8-19.76 5.428-5.446 3.654-8.153 8.022-8.153 13.093v65.79c0 5.21 2.666 9.61 8.062 13.175 5.38 3.58 12 5.363 19.85 5.363h106.6v-17.743H570.072v-67.312h80.634v24.744h-49.432v17.808h76.493v-60.346z" fill="#c60a4d" fill-rule="evenodd"/></g><g><path d="M832.136 160.532H725.55c-7.64 0-14.227 1.8-19.744 5.428-5.46 3.654-8.183 8.022-8.183 13.093v65.79c0 5.21 2.673 9.61 8.054 13.175 5.38 3.58 12.023 5.363 19.874 5.363h106.586v-17.743H724.458v-24.76h107.678V203.07H724.458v-24.745h107.678v-17.793z" fill="#c60a4d" fill-rule="evenodd"/></g><g><path d="M951.92 191.937v71.445h27.07l-.002-102.85h-27.07l-80.616 71.73v-71.73h-26.835v102.85h26.835l80.617-71.445z" fill="#c60a4d" fill-rule="evenodd"/></g><g><path d="M893.51 331.262c-19.574 19.56-29.37 42.91-29.37 70.036V520.23c0 30.578-10.46 56.83-31.388 78.81-20.96 21.965-46.7 32.96-77.263 32.96-30.222 0-55.955-11.173-77.247-33.48-21.276-21.963-31.907-48.053-31.907-78.29V301.916c-35.698 0-63.342 9.787-82.917 29.346-19.56 19.56-29.356 42.91-29.356 70.036V520.23c0 30.578-10.46 56.83-31.403 78.81-20.944 21.965-46.71 32.96-77.238 32.96-30.23 0-55.954-11.173-77.254-33.48-21.277-21.963-31.915-48.053-31.915-78.29V401.298c0-27.482-9.788-50.98-29.363-70.562-19.218-19.203-46.88-28.82-82.902-28.82V520.23c0 60.434 21.617 112.11 64.883 155.01 43.583 42.92 95.77 64.365 156.552 64.365 65.563 0 120.666-24.54 165.3-73.633 20.92 22.994 45.81 41.03 74.662 54.066 28.836 13.07 58.864 19.567 90.105 19.567 60.766 0 112.798-21.446 156.03-64.364 43.267-42.9 64.884-94.576 64.884-155.01V301.916c-35.707 0-63.327 9.787-82.894 29.346" fill="#dad9d9" fill-rule="evenodd"/></g><g><path d="M411.47 408.33c0 32.903 26.673 59.576 59.6 59.576 32.895 0 59.567-26.673 59.567-59.576 0-32.895-26.672-59.568-59.567-59.568-32.927 0-59.6 26.673-59.6 59.568" fill="#c60a4d" fill-rule="evenodd"/></g><g><path d="M739.14 408.33c0 32.903 26.67 59.576 59.566 59.576 32.912 0 59.568-26.673 59.568-59.576 0-32.895-26.656-59.568-59.568-59.568-32.895 0-59.567 26.673-59.567 59.568" fill="#c60a4d" fill-rule="evenodd"/></g><g><path d="M228.263 30.61h13.275c21.937 0 24.392 19.728 24.392 35.916 0 17.452-1.3 36.168-24.392 36.168h-13.275V30.61zm-12.7 81.19h27.563c31.895 0 36.084-20.23 36.084-45.144 0-22.767-6.498-45.154-34.783-45.154h-28.864v90.3z" fill="#666"/></g><path d="M295.256 134.69h11.258v-12.77h-11.258v12.77zm-.72-22.89h12.7V21.503h-12.7v90.3z" fill="#666"/><g><path d="M368.727 47.43c0-16.06-4.618-27.702-25.834-27.702-17.173 0-24.1 9.868-24.1 20.62v7.462h12.12v-6.58c0-7.46 3.177-12.396 11.834-12.396 11.546 0 13.28 6.45 13.28 18.976v63.99h12.7V47.43z" fill="#666"/></g><path d="M386.21 134.69h11.26v-12.77h-11.26v12.77zm-.72-22.89h12.7V21.503h-12.7v90.3z" fill="#666"/><g><path d="M446.265 21.502h-12.7v80.44H407.73v9.86h64.51v-9.86h-25.975V21.5z" fill="#666"/></g><g><path d="M487.854 55.394h27.71L502.43 99.032h-.288l-14.288-43.638zm6.206 56.408h17.027l27.71-90.3H525.52l-7.36 24.785h-32.903l-7.648-24.784h-13.28l29.73 90.3z" fill="#666"/></g><g><path d="M546.04 111.8h12.7V31.37h41.852v-9.868H546.04v90.3z" fill="#666"/></g><g><path d="M653.45 55.394h27.71l-13.134 43.638h-.288L653.45 55.394zm6.206 56.408h17.03l27.71-90.3h-13.28l-7.36 24.785h-32.903L643.2 21.503h-13.275l29.73 90.3z" fill="#666"/></g><g><path d="M756.38 47.43c0-16.06-4.617-27.702-25.833-27.702-17.172 0-24.1 9.868-24.1 20.62v7.462h12.12v-6.58c0-7.46 3.177-12.396 11.838-12.396 11.546 0 13.276 6.45 13.276 18.976v63.99h12.7V47.43z" fill="#666"/></g><g><path d="M787.145 55.394h27.71L801.72 99.032h-.287l-14.288-43.638zm6.206 56.408h17.032l27.71-90.3h-13.28l-7.36 24.785h-32.904l-7.652-24.784H763.62l29.73 90.3z" fill="#666"/></g><g><path d="M845.33 111.8h16.452l34.062-75.374h.288V111.8h12.7V21.503h-17.46L858.322 94.6h-.29V21.502h-12.7v90.3z" fill="#666"/></g><g><path d="M969.335 88.402c0 9.488-3.897 16.067-16.022 16.067-10.825 0-17.03-5.065-17.03-14.674 0-25.417 48.637-10.242 48.637-43.25 0-20.87-17.46-26.818-32.04-26.818-24.1 0-31.174 10.88-31.174 30.1h12.7c0-10.112.867-20.993 19.34-20.993 10.104 0 17.898 6.327 17.898 15.937 0 25.546-48.637 10.75-48.637 43.89 0 8.345 4.04 24.914 30.164 24.914 19.77 0 28.432-8.475 28.865-25.174h-12.7z" fill="#666"/></g></g></g></g></svg>