<svg width="381" height="255" xmlns="http://www.w3.org/2000/svg" style="margin-left:auto;margin-right:auto" display="block"><defs><clipPath id="c0_1"><path d="M.5 256.5V.5h381v256z"/></clipPath><style type="text/css"><![CDATA[

.g3_1{
fill: #62B9D8;
}
.g2_1{
fill: #3FA04B;
}
.g1_1{
fill: #A9D408;
}
.g5_1{
fill: #E75D22;
}
.g4_1{
fill: #4A84B6;
}
.g7_1{
fill: #777777;
}
.g6_1{
fill: #B24622;
}


]]></style></defs><path d="M0 0v255h381V0z" fill="#fff"/><path d="M177 86l10 7-10 6z" class="g1_1"/><path d="M177 99l-10-6 10-7z" class="g2_1"/><path d="M201 125l-34-20V93l34 20zM191 119l10 6-10 6z" class="g1_1"/><path d="M201 125l-10-6 10-6z" class="g2_1"/><path d="M167 105l10 6-10 6z" class="g3_1"/><path d="M167 117l-10-6 10-6z" class="g4_1"/><path d="M191 144l-34-21v-12l34 20zM181 138l10 6-10 6z" class="g3_1"/><path d="M191 144l-10-6 10-7z" class="g4_1"/><path d="M157 123l10 6-10 7z" class="g5_1"/><path d="M157 136l-10-7 10-6z" class="g6_1"/><path d="M181 162l-34-20v-13l34 21zM170 156l11 6-11 6z" class="g5_1"/><path d="M181 162l-11-6 11-6z" class="g6_1"/><g clip-path="url(#c0_1)"><path d="M72 128c-1 0-2 1-2 2h-7l-2-2s0-1-1-1l2-1v1s1 1 2 1v1h4c1 0 1-1 1-1l1-1v-4l-8-2c-1 0-1-1-1-2v-3s1-2 2-2h7s1 1 1 2c0 0 1 0 1 1h-2c0-1-1-2-2-2h-4l-2 2v2l1 1 7 2c1 0 2 1 2 3v3zM81 115v15h-2v-15h-4v-1h10v1zM97 117c0-1-1-1-1-2h-6v6h6l1-1v-1zm1 4l-1 1c0 1-1 1-1 1l4 7h-2l-4-7h-4v7h-2v-16h9c0 1 1 1 1 2 1 0 1 1 1 1v2c0 1 0 1-1 2zM103 114h2v16h-2v-16zM117 130l-7-14v14h-1v-16h2l7 14v-14h1v16zM134 130v-1c-1 0-1 0-1 1h-7l-2-2v-12s1-2 2-2h7s1 1 1 2c0 0 1 0 1 1h-2s-1-1-1-2h-5c-1 0-1 1-2 2v10c1 0 1 1 2 1v1h4v-1c1 0 2-1 2-1v-5h-3v-1h5v9zM219 130h-2l-5-16h1l5 14 5-14h1zM227 130v-16h9v1h-7v6h7v2h-7v5h7v2zM249 130l-7-14v14h-1v-16h2l7 14v-14h1v16zM260 115v15h-1v-15h-5v-1h11v1zM278 128s-1 1-1 2h-7c0-1-1-2-2-2v-14h2v13l1 1 1 1h3v-1c1 0 2-1 2-1v-13h2v12c0 1 0 1-1 2zM292 117l-2-2h-6v6h6c1 0 1-1 2-1v-1zm1 4l-1 1c-1 1-1 1-2 1l4 7h-2l-4-7h-4v7h-1v-16h9c0 1 1 1 1 2v5zM297 130v-16h10v1h-8v6h7v2h-7v5h8v2zM322 128c-1 0-2 1-2 2h-7l-2-2-1-1 2-1v1s1 1 2 1v1h4l1-1 1-1v-4l-8-2c-1 0-1-1-1-2v-3s1-2 2-2h6c1 0 2 1 2 2 0 0 1 0 1 1h-2c0-1-1-2-2-2h-4c-1 0-1 1-2 2v2s0 1 1 1l7 2c1 0 2 1 2 3v3z" class="g7_1"/></g></svg>